<svg xmlns="http://www.w3.org/2000/svg" data-name="Layer 1" viewBox="0 0 128 128"><path fill="#fc785e" d="M117,128H11c-1.44-17.27,13.09-19.57,13.09-19.57l19.27-8.62,1.25,2.44c1.24,2.44,6.37,9.86,20.59,10.06,14.21.2,18.94-13.54,18.94-13.54s16.98,7.57,25.89,13.34C118.95,117.89,117,128,117,128Z"/><path fill="#ffdb80" d="M41.12033,100.835,39.97,128H88.03V100.92958l-3.889-1.78195s-5.14013,14.11618-18.94558,13.54357-18.77226-4.04564-21.01292-10.73029S41.12033,100.835,41.12033,100.835Z"/><path fill="#2d4356" d="M109.32,109.32,88.24,99.28a13.028,13.028,0,0,1-7.4-11.69V86.54a30.26076,30.26076,0,0,0,5.83-10.6,20.23728,20.23728,0,0,0,12.37-5.98,1.9533,1.9533,0,0,0,.56-1.61l-.38-3.75,1.95-1.16v-.01l4.85-2.89a1.98435,1.98435,0,0,0,.72-2.68l-4.94-8.88,5.8-3.87a1.98773,1.98773,0,0,0,.4-2.96l-6.73-7.75,4.88-6.62a1.98537,1.98537,0,0,0,.34-1.65,2.03407,2.03407,0,0,0-1.06-1.32l-9.64-4.75-1.54-9.13a1.98987,1.98987,0,0,0-2.3-1.64l-9.24,1.54L78.47,1.19A1.98933,1.98933,0,0,0,77.09.05a2.01375,2.01375,0,0,0-1.75.43L66.69,7.81,61.19.91A1.9496,1.9496,0,0,0,59.57.16,2.01292,2.01292,0,0,0,57.99,1L52.77,8.31,45.21,5.8A2.01406,2.01406,0,0,0,42.69,7l-2.93,8.02c-.02.05-.03.09-.05.14l-.13.36H30.22a2.0122,2.0122,0,0,0-1.99,2.25L29.65,29.01c-3.19.68-7.61,1.61-8.27,1.71a2.01318,2.01318,0,0,0-1.62,1.05C19.1,32.98,19.01,33.14,25.41,42.89c-1.87,3.98-4.56,11.3,3.63,20.17a2.008,2.008,0,0,0,3.54-1.28v-.05a1.341,1.341,0,0,0-.04-.35v-.03H32.53v-.04A17.27767,17.27767,0,0,1,33.47,51.17a36.61341,36.61341,0,0,0,2.5,6.88c.3,7.45-4.04,14.62-4.08,14.69a1.99876,1.99876,0,0,0,1.7,3.04,2.11144,2.11144,0,0,0,.74-.14,28.71387,28.71387,0,0,0,4.6-2.32l.36,1.36a30.25317,30.25317,0,0,0,7.84,13.61,13.0251,13.0251,0,0,1-7.37,10.99L18.68,109.32A17.02669,17.02669,0,0,0,9,124.61v1.4a2,2,0,0,0,4,0v-1.4a13.01986,13.01986,0,0,1,7.41-11.69l17.56-8.37V126a2.005,2.005,0,0,0,4.01,0V102.62c.12-.06.24-.12.36-.19,1.84,7.04,10.69,12.23,21.66,12.23s19.82-5.19,21.66-12.23c.12006.07.24005.13.36.19V126a2.005,2.005,0,0,0,4.01,0V104.55l17.56,8.37A13.01986,13.01986,0,0,1,115,124.61v1.4a2,2,0,0,0,4,0v-1.4A17.02669,17.02669,0,0,0,109.32,109.32ZM35.29,43.99a2.00608,2.00608,0,0,0-2.16.52,18.44348,18.44348,0,0,0-4.8,10.4c-1.99-4.78-.21-8.45,1.09-11.12l.09-.19a1.96581,1.96581,0,0,0-.13-1.96c-2.24-3.4-3.83-5.89-4.81-7.49005,1.36-.27,3.34-.69,6.26-1.32h.01c.87994-.18,1.47-.31995,1.47-.31995a1.9853,1.9853,0,0,0,1.54-2.19L32.49,19.51h8.49a1.989,1.989,0,0,0,1.88-1.31l2.93-8.01,7.12,2.37a2.002,2.002,0,0,0,2.27-.74l4.53-6.35,5.13,6.44a2.02414,2.02414,0,0,0,2.87.28l8.18-6.94,3.78,8.6a2.00794,2.00794,0,0,0,2.17,1.17l8.79-1.47L92,21.73a1.98169,1.98169,0,0,0,1.09,1.45l8.43,4.16L97.1,33.31a1.98672,1.98672,0,0,0,.09,2.49l6.3,7.25-5.45,3.64a1.99743,1.99743,0,0,0-.64,2.62l4.9,8.8-6.23,3.72a2.00143,2.00143,0,0,0-.97,1.92l.42,4.04a17.05043,17.05043,0,0,1-13.8,4.24C94.17,65.74,92.66,53.7,92.64,53.57a2.00192,2.00192,0,0,0-3.73-.7,11.05532,11.05532,0,0,1-8.66,5.37C94.14,45.22,86.58,31.15,86.49,31a2.00286,2.00286,0,0,0-3.51,1.93,17.52992,17.52992,0,0,1-.82,16.65C73.95,43.51,76.89,28.45,76.94,28.2a2.00141,2.00141,0,0,0-3.92-.81A38.52213,38.52213,0,0,0,72.37,33.77a26.06221,26.06221,0,0,0-5.7,21.08c-12.32-8.43-8.68-22.31-8.5-22.95a2.00282,2.00282,0,0,0-3.86-1.07A28.67521,28.67521,0,0,0,54.41,43.95,66.75717,66.75717,0,0,1,48.7,56.97a41.38824,41.38824,0,0,1,.22-21.56,2.00108,2.00108,0,0,0-3.87-1.02c-3.85,14.49-.3,25.62994,3.1,32.18C37.31,59.03,36.62,46.41,36.6,45.79A2.01539,2.01539,0,0,0,35.29,43.99Zm2.67,25.2a33.36457,33.36457,0,0,0,1.53-5.47,29.9174,29.9174,0,0,0,2.11,2.46A29.24449,29.24449,0,0,1,37.96,69.19Zm5.2,4.47-.75-2.83q1.14-.93,2.19-1.95a31.07267,31.07267,0,0,0,8.7,4.78,1.9942,1.9942,0,0,0,2.17-3.21,32.0463,32.0463,0,0,1-5.1-8.55,62.34733,62.34733,0,0,0,6.27-12.18A25.86832,25.86832,0,0,0,68.78,60.63a1.95113,1.95113,0,0,0,.85.19,2.00722,2.00722,0,0,0,1.89-2.66c-.16-.44-3.24-9.42,1.27-17.97.76,4.64,2.7,9.5,7.07,12.66a32.48246,32.48246,0,0,1-6.24,5.64,1.98806,1.98806,0,0,0,.78,3.58c.39.08,7.78,1.43,13.58-2.44-1.27,3.8-4.66,8.54-13.41,10.82a1.98659,1.98659,0,0,0-.32,3.74,26.432,26.432,0,0,0,8.17,1.84,25.62945,25.62945,0,0,1-8.11,11.31,47.79092,47.79092,0,0,1-11.13,6.54,47.85508,47.85508,0,0,1-11.14-6.54A25.98424,25.98424,0,0,1,43.16,73.66ZM64,110.67c-9.75,0-17.98-5-18.02-10.93a16.99682,16.99682,0,0,0,4.74-8.39,51.53118,51.53118,0,0,0,11.65,6.51,2.1224,2.1224,0,0,0,.75.14h.12a2.11014,2.11014,0,0,0,.74-.14A51.924,51.924,0,0,0,76.8,90.47c.09-.07.17-.15.26-.23a17.05027,17.05027,0,0,0,4.96,9.49C81.99,105.67,73.75,110.67,64,110.67Z"/><path fill="#d68751" d="M41.6 66.18a29.24449 29.24449 0 01-3.64 3.01 33.36457 33.36457 0 001.53-5.47A29.9174 29.9174 0 0041.6 66.18zM97.4 49.31l4.9 8.8-6.23 3.72a2.00143 2.00143 0 00-.97 1.92l.42 4.04a17.05043 17.05043 0 01-13.8 4.24C94.17 65.74 92.66 53.7 92.64 53.57a2.00192 2.00192 0 00-3.73-.7 11.05532 11.05532 0 01-8.66 5.37C94.14 45.22 86.58 31.15 86.49 31a2.00286 2.00286 0 00-3.51 1.93 17.52992 17.52992 0 01-.82 16.65C73.95 43.51 76.89 28.45 76.94 28.2a2.00141 2.00141 0 00-3.92-.81A38.52213 38.52213 0 0072.37 33.77a26.06221 26.06221 0 00-5.7 21.08c-12.32-8.43-8.68-22.31-8.5-22.95a2.00282 2.00282 0 00-3.86-1.07A28.67521 28.67521 0 0054.41 43.95 66.75717 66.75717 0 0148.7 56.97a41.38824 41.38824 0 01.22-21.56 2.00108 2.00108 0 00-3.87-1.02c-3.85 14.49-.3 25.62994 3.1 32.18C37.31 59.03 36.62 46.41 36.6 45.79a2.00177 2.00177 0 00-3.47-1.28 18.44348 18.44348 0 00-4.8 10.4c-1.99-4.78-.21-8.45 1.09-11.12l.09-.19a1.96581 1.96581 0 00-.13-1.96c-2.24-3.4-3.83-5.89-4.81-7.49005 1.36-.27 3.34-.69 6.26-1.32h.01c.87994-.18 1.47-.31995 1.47-.31995a1.9853 1.9853 0 001.54-2.19L32.49 19.51h8.49a1.989 1.989 0 001.88-1.31l2.93-8.01 7.12 2.37a2.002 2.002 0 002.27-.74l4.53-6.35 5.13 6.44a2.02414 2.02414 0 002.87.28l8.18-6.94 3.78 8.6a2.00794 2.00794 0 002.17 1.17l8.79-1.47L92 21.73a1.98169 1.98169 0 001.09 1.45l8.43 4.16L97.1 33.31a1.98672 1.98672 0 00.09 2.49l6.3 7.25-5.45 3.64A1.99743 1.99743 0 0097.4 49.31z"/><path fill="#e1ebf4" d="M73.08,72.2a2.00043,2.00043,0,0,0,1.17,1.99,26.432,26.432,0,0,0,8.17,1.84,25.62945,25.62945,0,0,1-8.11,11.31,47.79092,47.79092,0,0,1-11.13,6.54,47.85508,47.85508,0,0,1-11.14-6.54,25.98424,25.98424,0,0,1-8.88-13.68l-.75-2.83q1.14-.93,2.19-1.95a31.07267,31.07267,0,0,0,8.7,4.78,1.9942,1.9942,0,0,0,2.17-3.21,32.0463,32.0463,0,0,1-5.1-8.55,62.34733,62.34733,0,0,0,6.27-12.18A25.86832,25.86832,0,0,0,68.78,60.63a1.95113,1.95113,0,0,0,.85.19,2.00722,2.00722,0,0,0,1.89-2.66c-.16-.44-3.24-9.42,1.27-17.97.76,4.64,2.7,9.5,7.07,12.66a32.48246,32.48246,0,0,1-6.24,5.64,1.98806,1.98806,0,0,0,.78,3.58c.39.08,7.78,1.43,13.58-2.44-1.27,3.8-4.66,8.54-13.41,10.82A1.99394,1.99394,0,0,0,73.08,72.2Z"/><path fill="#e1ebf4" d="M82.02,99.73c-.03,5.94-8.27,10.94-18.02,10.94s-17.98-5-18.02-10.93a16.99682,16.99682,0,0,0,4.74-8.39,51.53118,51.53118,0,0,0,11.65,6.51,2.1224,2.1224,0,0,0,.75.14h.12a2.11014,2.11014,0,0,0,.74-.14A51.924,51.924,0,0,0,76.8,90.47c.09-.07.17-.15.26-.23A17.05027,17.05027,0,0,0,82.02,99.73Z"/><path fill="#2d4356" d="M62.143 76.77332h1.72015a1.99413 1.99413 0 100-3.98822H62.143a1.99413 1.99413 0 100 3.98822zM59.6217 83.75269h6.00653a1.99413 1.99413 0 100-3.98822H59.6217a1.99413 1.99413 0 100 3.98822zM48.50214 30.38293a1.99441 1.99441 0 001.49133-3.32416c-3.86993-4.30469-10.60431-2.54425-10.88928-2.46729a1.99436 1.99436 0 001.04309 3.84991c.04645-.01166 4.64862-1.18591 6.86249 1.27747A2.00042 2.00042 0 0048.50214 30.38293zM55.03662 19.69965c1.38867.75171 5.243 3.18689 6.38733 5.403 1.051 2.03595.395 5.144.05573 6.16443a2.00128 2.00128 0 003.79321 1.27747c.1828-.53845 1.72552-5.367-.28839-9.2666-1.91229-3.70294-7.41827-6.74957-8.04-7.08453a1.99584 1.99584 0 10-1.90784 3.50623zM81.02106 27.9176c.02051 0 .041 0 .06207-.001a1.99714 1.99714 0 001.94006-2.05353A8.29179 8.29179 0 0184.60065 21.166a1.99906 1.99906 0 00-3.15436-2.4566 12.28644 12.28644 0 00-2.42548 7.27441A1.99833 1.99833 0 0081.02106 27.9176zM70.58386 23.09784a1.99827 1.99827 0 002.0022-1.99414c0-4.36505 1.58911-5.80121 1.704-5.89856a1.997 1.997 0 00-2.269-3.28619c-.352.23169-3.43933 2.46143-3.43933 9.18475A1.99827 1.99827 0 0070.58386 23.09784zM30.6731 36.31079A1.99623 1.99623 0 1032.58435 39.816c.02-.01074 2.10437-1.08569 3.22424.18011a1.99832 1.99832 0 003.00519-2.63477C36.23578 34.44324 32.36194 35.39746 30.6731 36.31079zM93.76447 43.999a2.00861 2.00861 0 00.8476-.18793 2.07151 2.07151 0 011.25378-.2785 1.99781 1.99781 0 002.73492-2.90448c-.20874-.21814-2.14539-2.08179-5.68689-.42944a1.9933 1.9933 0 00.85059 3.80035z"/><path fill="#72492d" d="M82.16 49.57987C77.09 45.82987 76.27 38.63993 76.4 33.63993c.15 4.77 1.33 10.66 5.75995 13.93994a18.34694 18.34694 0 002.5-8.11A17.957 17.957 0 0182.16 49.57987zM102.3 58.1099l-6.23 3.72a1.88792 1.88792 0 00-.85 1.04l-.12-1.12a2.00143 2.00143 0 01.97-1.92l5.39-3.22zM95.52 67.78989a17.05043 17.05043 0 01-13.8 4.24 22.1209 22.1209 0 003.11-1.89 16.44543 16.44543 0 0010.5-4.19zM92.68 53.94992c-.02-.23-.04-.37006-.04-.38a2.00192 2.00192 0 00-3.73-.7 11.05532 11.05532 0 01-8.66 5.37 29.3485 29.3485 0 002.4-2.51 10.32254 10.32254 0 006.25995-4.86 2.00192 2.00192 0 013.73.7A13.50384 13.50384 0 0192.68 53.94992zM66.67 54.84989a20.59883 20.59883 0 01-9.12-18.53 20.30115 20.30115 0 008.88 16.36C66.49 53.44992 66.57 54.1799 66.67 54.84989zM54.41 43.94992a66.75717 66.75717 0 01-5.71 13.02 39.63283 39.63283 0 01-1.31-11.13 39.25864 39.25864 0 001.31 9.13 66.8894 66.8894 0 005.45-12.21C54.22 43.14987 54.31 43.5499 54.41 43.94992zM41.6 66.1799a29.2445 29.2445 0 01-3.64 3.01c.31-.81.6-1.7.86-2.63.62-.46 1.21-.95 1.79-1.47C40.93 65.45987 41.26 65.81992 41.6 66.1799zM48.15 66.56992c-10.84-7.54-11.53-20.16-11.55-20.78a2.00177 2.00177 0 00-3.47-1.28 18.44348 18.44348 0 00-4.8 10.4 10.80278 10.80278 0 01-.84-5.28 11.33293 11.33293 0 00.84 3.28 18.44348 18.44348 0 014.8-10.4 2.00177 2.00177 0 013.47 1.28c.02.59.65 12.1 10.11 19.7C47.18 64.6099 47.67 65.63993 48.15 66.56992z" opacity=".4"/><path fill="#e5d0c3" d="M32.31 34.50992s-.59.14-1.47.31995h-.01c-2.21.48-3.88.83-5.15 1.1-.43-.68-.8-1.28-1.11-1.78 1.36-.27 3.34-.69 6.26-1.32h.01c.87994-.18 1.47-.31995 1.47-.31995a1.95522 1.95522 0 001.41-1.2l.13 1.01A1.9853 1.9853 0 0132.31 34.50992zM103.49 43.0499l-1.1.73-5.2-5.98a1.95961 1.95961 0 01-.21-2.29 1.942 1.942 0 00.21.29zM101.52 27.33988l-1.08 1.46-7.35-3.62a1.98169 1.98169 0 01-1.09-1.45l-1.37-8.18-8.79 1.47a2.00794 2.00794 0 01-2.17-1.17l-3.78-8.6-8.18 6.94a2.02414 2.02414 0 01-2.87-.28l-5.13-6.44-4.53 6.35a2.002 2.002 0 01-2.27.74l-7.12-2.37-2.93 8.01a1.989 1.989 0 01-1.88 1.31H32.74l-.25-2h8.49a1.989 1.989 0 001.88-1.31l2.93-8.01 7.12 2.37a2.002 2.002 0 002.27-.74l4.53-6.35 5.13 6.44a2.02414 2.02414 0 002.87.28l8.18-6.94 3.78 8.6a2.00794 2.00794 0 002.17 1.17l8.79-1.47 1.37 8.18a1.98169 1.98169 0 001.09 1.45z" opacity=".3"/><path fill="#9fa5aa" d="M82.42,76.02988a25.62945,25.62945,0,0,1-8.11,11.31,47.79092,47.79092,0,0,1-11.13,6.54,47.85508,47.85508,0,0,1-11.14-6.54,25.98424,25.98424,0,0,1-8.88-13.68l-.75-2.83c.15-.12.29-.24.43005-.37l.31995,1.2a25.98424,25.98424,0,0,0,8.88,13.68,47.85508,47.85508,0,0,0,11.14,6.54,47.79092,47.79092,0,0,0,11.13-6.54,25.31585,25.31585,0,0,0,7.31-9.38C81.88,75.9899,82.15,76.00992,82.42,76.02988Z" opacity=".5"/><path fill="#f9dbd7" d="M115,128v-1.39a13.01986,13.01986,0,0,0-7.41-11.69l-17.56-8.37v-2l17.56,8.37A13.01986,13.01986,0,0,1,115,124.61v1.4a1.991,1.991,0,0,0,2,1.99Z" opacity=".3"/><path fill="#f9edd2" d="M86.02,102.61991v2c-.12-.06-.24-.12-.36-.19-1.84,7.04-10.69,12.23-21.66,12.23s-19.82-5.19-21.66-12.23c-.12006.07-.24005.13-.36.19v-2c.12-.06.24-.12.36-.19,1.84,7.04,10.69,12.23,21.66,12.23s19.82-5.19,21.66-12.23C85.78,102.49991,85.9,102.55991,86.02,102.61991Z" opacity=".5"/><path fill="#f9dbd7" d="M37.97,104.55v2l-17.56,8.37A13.01986,13.01986,0,0,0,13,126.61V128H11a1.991,1.991,0,0,0,2-1.99v-1.4a13.01986,13.01986,0,0,1,7.41-11.69Z" opacity=".3"/></svg>